<svg width="36" height="36" viewBox="0 0 36 36" fill="none" xmlns="http://www.w3.org/2000/svg">
<path d="M17 18C17 18 10.969 23.274 9.26002 24.832C7.93702 26.035 10.14 28.33 11.395 27.284C14.728 24.499 17.888 22.434 17.888 22.434L18.255 22.96C16.946 23.75 13.562 25.818 11.806 27.398C10.482 28.588 12.573 30.951 13.899 29.763C15.721 28.129 19.894 25.198 19.894 25.198L20.262 25.582C19.182 26.261 17.49 27.522 15.277 29.54C13.945 30.755 15.896 32.025 17.041 31.074C20.157 28.488 20.273 26.691 23.702 25.224C28.935 22.986 17 18 17 18Z" fill="#EF9645"/>
<path d="M29.979 8.83598C30.86 8.39798 31.632 8.97998 32.085 9.88898C32.533 10.8 34.617 14.904 35.038 15.758C35.463 16.61 35.229 17.861 34.319 18.311C33.408 18.764 32.085 19.365 31.227 20.823C30.762 21.617 28.831 23.71 23.598 25.952C20.171 27.414 17.433 29.89 16.337 30.752C15.451 31.45 13.664 30.115 14.994 28.902C17.208 26.882 18.9 25.621 19.979 24.944L19.611 24.558C19.611 24.558 15.23 27.614 13.373 29.208C12.112 30.293 10.435 28.255 11.76 27.066C13.517 25.486 16.662 23.112 17.971 22.322L17.605 21.793C17.605 21.793 14.175 24.024 10.84 26.813C9.72699 27.743 7.99299 25.654 9.31499 24.449C11.025 22.894 14.358 20.106 16.408 18.95L16.212 18.341C16.212 18.341 12.994 20.146 10.216 22.835C9.22199 23.796 7.24199 22.017 8.69099 20.542C12.153 17.02 16.649 14.933 17.845 14.129C19.451 13.049 20.296 12.375 19.451 11.996C18.177 11.423 16.055 9.41398 15.241 7.78598C14.188 5.67998 15.681 4.01598 17.346 5.67998C18.399 6.73298 20.505 8.83798 22.609 8.83798C25.438 8.83798 25.871 9.89098 27.873 9.89098C28.927 9.88898 29.979 8.83598 29.979 8.83598Z" fill="#FFCC4D"/>
<path d="M25.048 15.167C24.714 15.168 23.609 15.017 22.364 14.442C21.291 13.948 20.459 13.052 19.767 12.3C19.806 12.461 19.702 12.654 19.484 12.88C20.165 13.672 21.207 14.576 22.138 15.026C23.22 15.551 24.453 15.816 25.009 15.793C25.581 15.769 25.394 15.171 25.048 15.167ZM27.215 23.747C24.951 22.693 23.153 21.813 26.241 23.087C27.518 23.612 29.435 21.027 27.556 20.17C23.774 18.444 12 12 12 12C12 12 5.63201 19.437 6.42001 19.914C7.20901 20.388 7.53801 23.763 12.085 26.732C16.383 29.54 19.06 30.747 20.066 31.25C22.173 32.303 23.543 29.572 21.899 28.838C19.066 27.572 19.165 27.495 23.317 29.22C24.854 29.86 26.146 26.97 24.522 26.239C22.1 25.15 21.882 25.018 25.761 26.766C27.196 27.409 28.834 24.502 27.215 23.747Z" fill="#EF9645"/>
<path d="M7.08998 9.278C6.24798 8.769 5.12998 9.022 4.60498 9.893C4.07998 10.764 1.77698 14.576 1.28598 15.393C0.793979 16.209 0.921979 17.472 1.79198 17.997C2.66198 18.523 4.23898 19.474 5.02798 19.949C5.81698 20.426 9.03898 24.426 13.69 27.228C18.338 30.036 20.056 30.514 21.102 30.925C22.152 31.335 23.539 29.242 21.895 28.509C19.058 27.241 17.059 26.071 16.036 25.304L16.354 24.719C16.354 24.719 19.191 26.839 23.341 28.567C24.878 29.207 26.131 26.813 24.508 26.08C22.085 24.991 19.096 23.186 17.857 22.29L18.203 21.719C18.203 21.719 22.149 24.213 26.028 25.961C27.459 26.606 28.66 24.175 27.041 23.419C24.781 22.365 21.593 20.464 19.647 19.142L19.985 18.642C19.985 18.642 23.6 21.193 26.69 22.465C27.967 22.993 29.47 20.604 27.589 19.744C23.81 18.019 19.525 15 18.401 14.1C17.483 13.363 17.22 11.687 19.453 10.942C22.611 9.889 23.664 7.784 23.664 6.731C23.664 5.242 22.288 4.585 21.56 5.678C19.453 8.836 18.394 7.76 16.297 8.836C13.783 10.127 10.831 11.498 9.11798 10.464C8.38498 10.023 7.08998 9.278 7.08998 9.278Z" fill="#FFDC5D"/>
<path d="M18.948 11.721L24.374 9.00901C23.897 8.90701 23.334 8.83701 22.611 8.83701C20.507 8.83701 18.401 6.73201 17.348 5.67901C15.683 4.01501 14.19 5.67901 15.243 7.78501C15.958 9.21301 17.676 10.933 18.948 11.721Z" fill="#FFCC4D"/>
</svg>
